<?xml version="1.0" encoding="UTF-8" standalone="no"?>
<!-- Created with Inkscape (http://www.inkscape.org/) -->

<svg
   width="256"
   height="256"
   viewBox="0 0 67.733332 67.733333"
   version="1.1"
   id="svg1"
   inkscape:version="1.3 (0e150ed6c4, 2023-07-21)"
   sodipodi:docname="newTab.svg"
   inkscape:export-filename="..\..\newTab"
   inkscape:export-xdpi="96"
   inkscape:export-ydpi="96"
   xmlns:inkscape="http://www.inkscape.org/namespaces/inkscape"
   xmlns:sodipodi="http://sodipodi.sourceforge.net/DTD/sodipodi-0.dtd"
   xmlns="http://www.w3.org/2000/svg"
   xmlns:svg="http://www.w3.org/2000/svg">
  <sodipodi:namedview
     id="namedview1"
     pagecolor="#505050"
     bordercolor="#eeeeee"
     borderopacity="1"
     inkscape:showpageshadow="0"
     inkscape:pageopacity="0"
     inkscape:pagecheckerboard="0"
     inkscape:deskcolor="#505050"
     inkscape:document-units="mm"
     inkscape:zoom="1.4235831"
     inkscape:cx="414.79842"
     inkscape:cy="140.8418"
     inkscape:window-width="1920"
     inkscape:window-height="1013"
     inkscape:window-x="-9"
     inkscape:window-y="-9"
     inkscape:window-maximized="1"
     inkscape:current-layer="g25" />
  <defs
     id="defs1" />
  <g
     inkscape:label="Capa 1"
     inkscape:groupmode="layer"
     id="layer1"
     transform="translate(-76.729167,-124.35417)">
    <g
       id="g25"
       transform="matrix(0.26458333,0,0,0.26458333,12.704591,4.1763067)">
      <rect
         style="fill:none;fill-opacity:1;stroke:#ffffff;stroke-width:7;stroke-linecap:butt;stroke-linejoin:bevel;stroke-dasharray:none;stroke-dashoffset:0;stroke-opacity:1;paint-order:markers fill stroke"
         id="rect10"
         width="207.18465"
         height="174.7162"
         x="266.21335"
         y="494.85745"
         ry="7.2326174"
         rx="7.2326174" />
      <path
         d="m 269.23953,499.8548 v 43.63672 H 470.72577 V 499.8548 Z m 10.97748,5.59375 h 92.85742 c 0.24161,2e-5 0.47725,0.0237 0.70508,0.0703 0.22783,0.0466 0.44885,0.11652 0.6582,0.20508 0.20936,0.0886 0.40756,0.19647 0.59375,0.32227 0.18619,0.12579 0.35924,0.26939 0.51758,0.42773 0.15834,0.15834 0.30194,0.33139 0.42773,0.51758 0.1258,0.18619 0.23371,0.38634 0.32227,0.5957 0.0886,0.20936 0.15844,0.42842 0.20508,0.65625 0.0466,0.22783 0.0703,0.46347 0.0703,0.70508 v 30.94922 H 276.717 c 0,-4.49907 0.004,-16.16424 0,-30.94922 2e-5,-0.24161 0.0237,-0.47725 0.0703,-0.70508 0.0466,-0.22783 0.1165,-0.44689 0.20508,-0.65625 0.0886,-0.20936 0.19645,-0.40951 0.32226,-0.5957 0.12582,-0.18619 0.26938,-0.35924 0.42774,-0.51758 0.15836,-0.15834 0.33136,-0.30194 0.51758,-0.42773 0.18621,-0.1258 0.38437,-0.23371 0.59375,-0.32227 0.20937,-0.0886 0.43036,-0.15844 0.6582,-0.20508 0.22784,-0.0466 0.46346,-0.0703 0.70508,-0.0703 z"
         style="fill:#ffffff;fill-opacity:1;stroke:#ffffff;stroke-width:7;stroke-linejoin:round;stroke-opacity:1;paint-order:stroke fill markers"
         id="path25"
         sodipodi:nodetypes="cccccccssssssssccsssssssssc" />
      <path
         d="m 280.21701,505.44855 c -0.24162,2e-5 -0.47724,0.0237 -0.70508,0.0703 -0.22784,0.0466 -0.44883,0.11652 -0.6582,0.20508 -0.20938,0.0886 -0.40754,0.19647 -0.59375,0.32227 -0.18622,0.12579 -0.35922,0.26939 -0.51758,0.42773 -0.15836,0.15834 -0.30192,0.33139 -0.42774,0.51758 -0.12581,0.18619 -0.23368,0.38634 -0.32226,0.5957 -0.0886,0.20936 -0.15843,0.42842 -0.20508,0.65625 -0.0466,0.22783 -0.0703,0.46347 -0.0703,0.70508 0.004,14.78498 0,26.45015 0,30.94922 h 99.85742 v -30.94922 c -2e-5,-0.24161 -0.0237,-0.47725 -0.0703,-0.70508 -0.0466,-0.22783 -0.11652,-0.44689 -0.20508,-0.65625 -0.0886,-0.20936 -0.19647,-0.40951 -0.32227,-0.5957 -0.12579,-0.18619 -0.26939,-0.35924 -0.42773,-0.51758 -0.15834,-0.15834 -0.33139,-0.30194 -0.51758,-0.42773 -0.18619,-0.1258 -0.38439,-0.23371 -0.59375,-0.32227 -0.20935,-0.0886 -0.43037,-0.15844 -0.6582,-0.20508 -0.22783,-0.0466 -0.46347,-0.0703 -0.70508,-0.0703 z m 3.5,7 h 85.85742 v 20.44922 h -85.85742 v -10.22461 z"
         style="fill:#ffffff;stroke-linejoin:round;paint-order:stroke fill markers"
         id="path24" />
    </g>
  </g>
</svg>
