<?xml version="1.0" encoding="UTF-8" standalone="no"?>
<!-- Created with Inkscape (http://www.inkscape.org/) -->

<svg
   width="63.793999mm"
   height="63.794384mm"
   viewBox="0 0 63.793999 63.794384"
   version="1.1"
   id="svg1"
   xml:space="preserve"
   xmlns="http://www.w3.org/2000/svg"
   xmlns:svg="http://www.w3.org/2000/svg"><defs
     id="defs1" /><g
     id="layer2"
     transform="translate(-107.57561,-124.35957)"><ellipse
       style="display:inline;fill:none;fill-opacity:0;stroke:#f9f9f9;stroke-width:1.238;stroke-linejoin:bevel;stroke-dasharray:none;stroke-opacity:1;paint-order:stroke fill markers"
       id="path1-9"
       cx="139.47261"
       cy="156.25676"
       rx="31.278"
       ry="31.278193" /><g
       id="g172"
       transform="matrix(2.3638941,0,0,2.3601985,-184.58648,-200.2964)"
       style="fill:#f9f9f9;stroke-width:0.423362"><path
         style="fill:#f9f9f9;fill-opacity:1;stroke:#f9f9f9;stroke-width:0.423362;stroke-linecap:square;stroke-linejoin:miter;stroke-miterlimit:0;stroke-dasharray:none;stroke-opacity:1;paint-order:normal"
         d="m 134.44895,154.84598 h 7.65753 l -6.81762,0.31696 v 0.28004 l -1.01339,-0.0474"
         id="path170" /><path
         style="color:#000000;fill:#f9f9f9;stroke-width:0.296353;stroke-linecap:round;stroke-linejoin:round;stroke-miterlimit:6;stroke-dasharray:none"
         d="m 134.74609,148.9668 c -0.87353,0.83025 -1.21275,2.07416 -1.39062,3.36718 -0.17816,1.29515 -0.14502,2.23952 -0.14502,3.42525 -3.4e-4,0.0554 0.0223,0.10841 0.0625,0.14648 0.1752,0.16206 0.37593,0.22616 0.60742,0.23938 0.23149,0.0132 0.46553,-0.0366 0.67188,-0.24524 0.0366,-0.0376 0.0569,-0.0881 0.0566,-0.14062 0,-1.18591 -0.10494,-2.07765 0.0542,-3.23384 0.15876,-1.15407 0.58338,-2.10157 1.04984,-2.54492 0.08,-0.0765 0.0827,-0.2034 0.006,-0.2832 l -0.68945,-0.72461 c -0.0765,-0.08 -0.20341,-0.0827 -0.28321,-0.006 z m 0.16602,0.46484 0.41601,0.43555 c -0.51162,0.58324 -0.82814,1.4962 -0.98046,2.60351 -0.15976,1.15964 -0.13113,2.01398 -0.13135,3.17329 -0.1226,0.10662 -0.22604,0.1651 -0.3125,0.16016 -0.0814,-0.005 -0.25264,-0.0739 -0.35831,-0.15625 -1e-5,-1.16229 -0.0427,-2.0401 0.12535,-3.25923 0.1619,-1.17686 0.57645,-2.22729 1.24125,-2.95703 z"
         id="path169" /><path
         id="rect171"
         style="fill:#f9f9f9;fill-opacity:1;stroke:#f9f9f9;stroke-width:0.254018;stroke-linecap:butt;stroke-miterlimit:6"
         d="m 134.49061,157.4289 0.1754,-0.1754 h 5.73164 l 0.17539,0.1754 v 0.17539 h -6.08243 z" /><path
         style="color:#000000;fill:#f9f9f9;stroke-width:0.423362;stroke-linecap:round;stroke-linejoin:round;stroke-miterlimit:6;-inkscape-stroke:none"
         d="m 134.34795,155.65287 c -0.30836,0.32324 -0.0684,1.33845 -0.0684,1.33845 0.32612,0.76432 1.25163,0.36821 1.24957,0.008 0,0 0.19682,-1.14203 -0.18263,-1.44478 -0.26144,-0.2086 -0.76768,-0.14367 -0.99854,0.0983 z m 0.65,0.24873 c 0.26543,0.19733 0.13826,0.98255 0.13826,0.98255 -0.18301,0.19991 -0.26933,0.15577 -0.45273,-0.004 0,0 -0.21141,-0.69241 -0.0113,-0.92852 0.071,-0.0838 0.23758,-0.11557 0.32574,-0.05 z"
         id="path169-0" /><ellipse
         style="fill:#f9f9f9;fill-opacity:1;stroke:#f9f9f9;stroke-width:0.423362;stroke-linecap:butt;stroke-linejoin:round;stroke-miterlimit:6;stroke-dasharray:none;stroke-opacity:1;paint-order:normal"
         id="path171-4"
         cx="135.64415"
         cy="155.55453"
         rx="0.29765624"
         ry="0.33072916" /><g
         id="g171"
         transform="matrix(0.84148587,0.05719936,-0.05479884,0.87834809,29.088093,10.143593)"
         style="fill:#f9f9f9;stroke-width:0.4914"><path
           style="fill:#f9f9f9;fill-opacity:0;stroke:#f9f9f9;stroke-width:0.491401;stroke-linejoin:miter;stroke-dasharray:none;stroke-opacity:1;paint-order:stroke fill markers"
           d="m 133.0977,147.3418 -1.73851,-1.7385 1.52777,-1.52776 1.73205,1.73203"
           id="path47" /><path
           style="fill:#f9f9f9;fill-opacity:0;stroke:#f9f9f9;stroke-width:0.491401;stroke-linecap:round;stroke-linejoin:miter;stroke-miterlimit:0;stroke-dasharray:none;stroke-opacity:1;paint-order:stroke fill markers"
           d="m 131.21134,145.75114 1.82346,-1.82345"
           id="path48" /><path
           style="color:#000000;fill:#f9f9f9;stroke-width:0.4914;-inkscape-stroke:none;paint-order:stroke fill markers"
           d="m 134.97656,144.88867 -2.44531,2.45313 5.39648,5.39453 2.42188,-2.47266 z"
           id="path163" /><path
           style="fill:none;fill-opacity:0;stroke:#f9f9f9;stroke-width:0.294841;stroke-linecap:round;stroke-linejoin:miter;stroke-miterlimit:2;stroke-dasharray:none;stroke-opacity:1;paint-order:stroke fill markers"
           d="m 138.7557,148.86951 1.3044,1.27678 0.47425,-0.4743 -0.83125,-0.84925 z"
           id="path93" /><path
           style="color:#000000;fill:#f9f9f9;stroke-width:0.491401;stroke-linecap:square;stroke-miterlimit:0;stroke-dasharray:none"
           d="m 140.06897,150.26496 -2.14306,2.18671 0.002,0.28466 1.76174,0.68359 0.11914,-0.008 c 0,0 0.12968,-0.0663 0.28516,-0.1582 0.15548,-0.0919 0.33592,-0.2058 0.45703,-0.32618 0.12401,-0.12326 0.24045,-0.30746 0.33594,-0.46679 0.0955,-0.15934 0.16406,-0.29297 0.16406,-0.29297 l 0.01,-0.11524 -0.71119,-1.78887 z m 0.0349,0.37145 0.61302,1.4222 c -0.019,0.0359 -0.0537,0.10048 -0.12695,0.22266 -0.0905,0.15094 -0.20889,0.32851 -0.28907,0.4082 -0.0773,0.0768 -0.17352,0.17534 -0.32057,0.26226 -0.11705,0.0692 -0.17824,0.10001 -0.21485,0.11914 l -1.47658,-0.58007 z"
           id="rect108" /><ellipse
           style="fill:#f9f9f9;fill-opacity:1;stroke:#f9f9f9;stroke-width:0.491401;stroke-linecap:butt;stroke-linejoin:round;stroke-miterlimit:6;stroke-dasharray:none;stroke-opacity:1;paint-order:normal"
           id="path171"
           cx="134.61093"
           cy="149.4355"
           rx="0.29765624"
           ry="0.33072916" /></g></g></g></svg>
