<?xml version="1.0" encoding="UTF-8" standalone="no"?>
<!-- Created with Inkscape (http://www.inkscape.org/) -->

<svg
   width="63.556mm"
   height="63.556385mm"
   viewBox="0 0 63.556 63.556385"
   version="1.1"
   id="svg1"
   xml:space="preserve"
   xmlns="http://www.w3.org/2000/svg"
   xmlns:svg="http://www.w3.org/2000/svg"><defs
     id="defs1" /><g
     id="layer4"
     transform="translate(-77.906259,-86.373252)"
     style="stroke-width:0.6;stroke-dasharray:none"><ellipse
       style="fill:none;fill-opacity:0;stroke:#f9f9f9;stroke-width:1;stroke-dasharray:none;stroke-opacity:1;paint-order:stroke fill markers"
       id="path1-7-9"
       cx="95.690674"
       cy="169.41124"
       rx="31.278"
       ry="31.278193"
       transform="translate(13.993585,-51.259795)" /><g
       id="g24"
       transform="matrix(0.6011342,0.60113129,-0.6011342,0.60113129,117.33187,-20.31711)"
       style="fill:none;fill-opacity:0;stroke:#f9f9f9;stroke-width:0.705774;stroke-dasharray:none;stroke-opacity:1"><path
         id="path4"
         style="fill:none;fill-opacity:0;stroke:#f9f9f9;stroke-width:0.705774;stroke-dasharray:none;stroke-opacity:1"
         d="m 88.193761,117.06674 2.729902,4.41979 -2.462688,4.57408 h -5.192619 c 2.745574,2.27821 6.03626,3.01489 8.739139,3.01489 2.736246,0 4.620779,-2.79207 4.620779,-7.57133 0,-4.77927 -1.966596,-7.46721 -4.620779,-7.46721 -2.694752,0 -5.993565,0.81104 -8.739139,3.02976 z" /><path
         style="fill:none;fill-opacity:0;stroke:#f9f9f9;stroke-width:0.705774;stroke-dasharray:none;stroke-opacity:1"
         d="m 95.876563,117.06672 h 25.897917 m 0,8.99389 H 95.86322"
         id="path12" /><path
         style="fill:none;fill-opacity:0;stroke:#f9f9f9;stroke-width:0.705774;stroke-dasharray:none;stroke-opacity:1"
         d="m 97.802583,118.52185 h 23.971887 m 0,6.08363 H 97.790236"
         id="path12-0" /><path
         style="fill:none;fill-opacity:1;stroke:#f9f9f9;stroke-width:0.351761;stroke-dasharray:none;stroke-opacity:1"
         id="path14"
         d="m 113.2582,115.85647 0.61868,0.35644 0.71401,6.5e-4 0.35758,0.61803 0.61802,0.35757 6.6e-4,0.71401 0.35644,0.61868 -0.35644,0.61868 -6.6e-4,0.71401 -0.61802,0.35758 -0.35758,0.61802 -0.71401,6.6e-4 -0.61868,0.35644 -0.61868,-0.35644 -0.71401,-6.6e-4 -0.35757,-0.61802 -0.61803,-0.35758 -6.5e-4,-0.71401 -0.35644,-0.61868 0.35644,-0.61868 6.5e-4,-0.71401 0.61803,-0.35757 0.35757,-0.61803 0.71401,-6.5e-4 z"
         transform="matrix(2.006403,0,0,2.006403,-97.744671,-116.29809)" /><circle
         style="fill:none;fill-opacity:0;stroke:#f9f9f9;stroke-width:0.705774;stroke-dasharray:none;stroke-opacity:1"
         id="path17"
         cx="129.4969"
         cy="121.50449"
         r="5.3478246" /><path
         style="fill:none;fill-opacity:0;stroke:#f9f9f9;stroke-width:0.705774;stroke-dasharray:none;stroke-opacity:1"
         d="m 121.77448,117.06672 c 2.73219,0 2.73219,-1.82752 8.08003,-1.82752 8.14677,-0.31163 8.14677,12.84217 -2e-5,12.53057 -5.34784,0 -5.34782,-1.70916 -8.08001,-1.70916"
         id="path18" /></g></g></svg>
