<?xml version="1.0" encoding="UTF-8" standalone="no"?>
<!-- Created with Inkscape (http://www.inkscape.org/) -->

<svg
   width="210mm"
   height="297mm"
   viewBox="0 0 210 297"
   version="1.1"
   id="svg1"
   inkscape:version="1.3.2 (091e20ef0f, 2023-11-25)"
   sodipodi:docname="drawing.svg"
   xmlns:inkscape="http://www.inkscape.org/namespaces/inkscape"
   xmlns:sodipodi="http://sodipodi.sourceforge.net/DTD/sodipodi-0.dtd"
   xmlns="http://www.w3.org/2000/svg"
   xmlns:svg="http://www.w3.org/2000/svg">
  <sodipodi:namedview
     id="namedview1"
     pagecolor="#505050"
     bordercolor="#ffffff"
     borderopacity="1"
     inkscape:showpageshadow="0"
     inkscape:pageopacity="0"
     inkscape:pagecheckerboard="1"
     inkscape:deskcolor="#505050"
     inkscape:document-units="mm"
     inkscape:zoom="0.75544332"
     inkscape:cx="396.45595"
     inkscape:cy="561.25984"
     inkscape:window-width="1920"
     inkscape:window-height="1052"
     inkscape:window-x="0"
     inkscape:window-y="0"
     inkscape:window-maximized="1"
     inkscape:current-layer="layer1" />
  <defs
     id="defs1">
    <inkscape:path-effect
       effect="powerstroke"
       id="path-effect66"
       is_visible="true"
       lpeversion="1.3"
       scale_width="1"
       interpolator_type="CubicBezierJohan"
       interpolator_beta="0.2"
       start_linecap_type="zerowidth"
       end_linecap_type="zerowidth"
       offset_points="92,4.9921382"
       linejoin_type="extrp_arc"
       miter_limit="4"
       not_jump="false"
       sort_points="true"
       message="&lt;b&gt;Ctrl + click&lt;/b&gt; on existing node and move it" />
    <inkscape:path-effect
       effect="spiro"
       id="path-effect65"
       is_visible="true"
       lpeversion="1" />
    <inkscape:path-effect
       effect="powerstroke"
       id="path-effect64"
       is_visible="true"
       lpeversion="1.3"
       scale_width="1"
       interpolator_type="CubicBezierJohan"
       interpolator_beta="0.2"
       start_linecap_type="zerowidth"
       end_linecap_type="zerowidth"
       offset_points="18,4.9921382"
       linejoin_type="extrp_arc"
       miter_limit="4"
       not_jump="false"
       sort_points="true"
       message="&lt;b&gt;Ctrl + click&lt;/b&gt; on existing node and move it" />
    <inkscape:path-effect
       effect="spiro"
       id="path-effect63"
       is_visible="true"
       lpeversion="1" />
    <inkscape:path-effect
       effect="powerstroke"
       id="path-effect62"
       is_visible="true"
       lpeversion="1.3"
       scale_width="1"
       interpolator_type="CubicBezierJohan"
       interpolator_beta="0.2"
       start_linecap_type="zerowidth"
       end_linecap_type="zerowidth"
       offset_points="4,4.9921382"
       linejoin_type="extrp_arc"
       miter_limit="4"
       not_jump="false"
       sort_points="true"
       message="&lt;b&gt;Ctrl + click&lt;/b&gt; on existing node and move it" />
    <inkscape:path-effect
       effect="spiro"
       id="path-effect61"
       is_visible="true"
       lpeversion="1" />
    <inkscape:path-effect
       effect="powerstroke"
       id="path-effect60"
       is_visible="true"
       lpeversion="1.3"
       scale_width="1"
       interpolator_type="CubicBezierJohan"
       interpolator_beta="0.2"
       start_linecap_type="zerowidth"
       end_linecap_type="zerowidth"
       offset_points="1,4.9921382"
       linejoin_type="extrp_arc"
       miter_limit="4"
       not_jump="false"
       sort_points="true"
       message="&lt;b&gt;Ctrl + click&lt;/b&gt; on existing node and move it" />
    <inkscape:path-effect
       effect="powerstroke"
       id="path-effect59"
       is_visible="true"
       lpeversion="1.3"
       scale_width="1"
       interpolator_type="CubicBezierJohan"
       interpolator_beta="0.2"
       start_linecap_type="zerowidth"
       end_linecap_type="zerowidth"
       offset_points="2,4.9921382"
       linejoin_type="extrp_arc"
       miter_limit="4"
       not_jump="false"
       sort_points="true"
       message="&lt;b&gt;Ctrl + click&lt;/b&gt; on existing node and move it" />
    <inkscape:path-effect
       effect="bspline"
       id="path-effect58"
       is_visible="true"
       lpeversion="1.3"
       weight="33.333333"
       steps="2"
       helper_size="0"
       apply_no_weight="true"
       apply_with_weight="true"
       only_selected="false"
       uniform="false" />
    <inkscape:path-effect
       effect="powerstroke"
       id="path-effect56"
       is_visible="true"
       lpeversion="1.3"
       scale_width="1"
       interpolator_type="CubicBezierJohan"
       interpolator_beta="0.2"
       start_linecap_type="zerowidth"
       end_linecap_type="zerowidth"
       offset_points="15,4.9921382"
       linejoin_type="extrp_arc"
       miter_limit="4"
       not_jump="false"
       sort_points="true"
       message="&lt;b&gt;Ctrl + click&lt;/b&gt; on existing node and move it" />
    <inkscape:perspective
       sodipodi:type="inkscape:persp3d"
       inkscape:vp_x="0 : 148.5 : 1"
       inkscape:vp_y="0 : 1000 : 0"
       inkscape:vp_z="210 : 148.5 : 1"
       inkscape:persp3d-origin="105 : 99 : 1"
       id="perspective8" />
    <inkscape:path-effect
       effect="fill_between_many"
       method="bsplinespiro"
       autoreverse="false"
       close="false"
       join="false"
       linkedpaths="#path56,0,1"
       id="path-effect57" />
  </defs>
  <g
     inkscape:label="Layer 1"
     inkscape:groupmode="layer"
     id="layer1">
    <path
       sodipodi:type="star"
       style="fill:#ffffff;fill-opacity:1;stroke:none;stroke-width:1.69988;stroke-linecap:round;stroke-opacity:1"
       id="path13"
       inkscape:flatsided="false"
       sodipodi:sides="6"
       sodipodi:cx="21.714622"
       sodipodi:cy="68.99646"
       sodipodi:r1="14.515193"
       sodipodi:r2="42.675907"
       sodipodi:arg1="-2.96768"
       sodipodi:arg2="1.9779455"
       inkscape:rounded="5.700961"
       inkscape:randomized="0"
       d="M 7.4183872,66.48479 C -229.15158,94.19181 -148.24978,290.67793 4.8152552,108.18376 203.21169,-128.35748 201.15896,302.95449 16.741675,55.359722 -125.53829,-135.66237 -255.24937,32.643703 -20.672258,73.954828 283.37668,127.50056 -91.176806,341.37883 31.03791,57.871392 125.32791,-160.85772 -85.284962,-189.03777 -3.7728907,34.767529 101.87961,324.8545 -270.62114,107.4208 36.010858,71.50813 272.58083,43.801109 191.67903,-152.68501 38.61399,29.809161 -159.78245,266.3504 -157.72971,-164.96157 26.68757,82.633198 168.96754,273.65529 298.67861,105.34922 64.101503,64.038092 -239.94743,10.492357 134.60605,-203.38591 12.391335,80.121528 -81.898667,298.85064 128.71421,327.03069 47.202136,103.22539 -58.450366,-186.86158 314.05039,30.572122 7.4183872,66.48479 Z"
       inkscape:transform-center-x="-0.038201158"
       inkscape:transform-center-y="-0.34929477"
       transform="matrix(0.11765569,0,0,0.11765569,94.95302,31.165903)" />
    <path
       sodipodi:type="star"
       style="fill:#ffffff;fill-opacity:1;stroke:none;stroke-width:0.538869;stroke-linecap:round;stroke-opacity:1"
       id="path44"
       inkscape:flatsided="false"
       sodipodi:sides="6"
       sodipodi:cx="21.638681"
       sodipodi:cy="43.953571"
       sodipodi:r1="2.4652629"
       sodipodi:r2="31.970625"
       sodipodi:arg1="-3.0341462"
       sodipodi:arg2="-2.5105474"
       inkscape:rounded="-1.3647458"
       inkscape:randomized="0"
       d="M 19.187635,43.689197 C 14.81731,84.206989 19.868946,-7.8130216 -4.1747612,25.091253 -28.218469,57.995528 57.916713,25.224633 20.642113,41.698716 -16.632486,58.172799 65.584998,16.537639 25.067207,12.167315 -15.450585,7.7969912 55.997434,66.006799 23.093159,41.96309 -9.8111149,17.919382 67.354733,68.304232 50.880649,31.029633 34.406565,-6.2449656 19.719403,84.735737 24.089728,44.217946 28.460053,3.7001541 23.408416,95.720164 47.452124,62.815889 71.495831,29.911614 -14.63935,62.68251 22.63525,46.208427 59.909849,29.734343 -22.307636,71.369503 18.210156,75.739827 58.727948,80.110151 -12.720071,21.900344 20.184203,45.944052 53.088478,69.987761 -24.077371,19.60291 -7.6032864,56.877509 8.8707977,94.152108 23.55796,3.1714054 19.187635,43.689197 Z"
       transform="matrix(0.37114763,0,0,0.37114763,135.84213,60.434308)" />
    <path
       sodipodi:type="star"
       style="fill:#ffffff;fill-opacity:1;stroke:none;stroke-width:0.867951;stroke-linecap:round;stroke-opacity:1"
       id="path67"
       inkscape:flatsided="false"
       sodipodi:sides="4"
       sodipodi:cx="161.85217"
       sodipodi:cy="59.001789"
       sodipodi:r1="49.856186"
       sodipodi:r2="3.8444233"
       sodipodi:arg1="-0.26253859"
       sodipodi:arg2="0.52285957"
       inkscape:rounded="-1.3647458"
       inkscape:randomized="0"
       d="M 210,46.062464 C 193.27622,-16.167478 133.00524,116.75025 165.18296,60.921539 197.36068,5.0928294 112.56156,123.87339 174.7915,107.14962 237.02144,90.425839 104.10371,30.154858 159.93242,62.332577 215.76113,94.510296 96.980571,9.7111715 113.70435,71.941114 130.42812,134.17106 190.6991,1.2533294 158.52138,57.082039 126.34367,112.91075 211.14279,-5.8698129 148.91285,10.853963 86.682905,27.577739 219.60063,87.84872 163.77192,55.671001 107.94321,23.493282 226.72377,108.29241 210,46.062464 Z"
       transform="matrix(0.23042779,0,0,0.23042779,141.80662,101.30896)" />
    <path
       sodipodi:type="star"
       style="fill:#ffffff;fill-opacity:1;stroke:none;stroke-width:0.538869;stroke-linecap:round;stroke-opacity:1"
       id="path68"
       inkscape:flatsided="false"
       sodipodi:sides="4"
       sodipodi:cx="-107.47908"
       sodipodi:cy="168.36626"
       sodipodi:r1="49.318825"
       sodipodi:r2="39.461548"
       sodipodi:arg1="-2.0872793"
       sodipodi:arg2="-1.2583782"
       inkscape:rounded="-1.3647458"
       inkscape:randomized="0"
       d="m -131.83395,125.48051 c -44.79654,22.92211 84.995998,18.70302 36.483795,5.33441 -44.034365,-12.13464 51.563134,53.85815 30.756819,13.19647 -22.922103,-44.796547 -18.703018,84.99599 -5.334407,36.48379 12.134643,-44.03436 -53.858147,51.56314 -13.196472,30.75682 44.796549,-22.9221 -84.995995,-18.70302 -36.483795,-5.33441 44.034367,12.13465 -51.56313,-53.85814 -30.75681,-13.19647 22.9221,44.79655 18.70301,-84.99599 5.3344,-36.48379 -12.13464,44.03436 53.858151,-51.56313 13.19647,-30.75682 z"
       transform="matrix(0.37114763,0,0,0.37114763,68.246606,162.57279)" />
    <path
       sodipodi:type="star"
       style="fill:#ffffff;fill-opacity:1;stroke:none;stroke-width:0.932346;stroke-linecap:round;stroke-opacity:1"
       id="path69"
       inkscape:flatsided="false"
       sodipodi:sides="8"
       sodipodi:cx="-91.595474"
       sodipodi:cy="51.886452"
       sodipodi:r1="42.316563"
       sodipodi:r2="4.8077579"
       sodipodi:arg1="0.55329433"
       sodipodi:arg2="0.74101755"
       inkscape:rounded="-1.3647458"
       inkscape:randomized="0"
       d="m -55.592628,74.123504 c 17.512225,-48.239514 -74.080502,11.026875 -32.455769,-18.991628 42.547464,-30.683952 -41.337353,60.145534 6.186809,37.936403 46.4935,-21.727474 -60.180002,-44.585645 -9.520585,-36.378803 51.782431,8.388769 -71.759237,13.299388 -22.450357,31.199822 48.239517,17.512222 -11.02687,-74.080499 18.991632,-32.455769 30.683952,42.547464 -60.145532,-41.337356 -37.936402,6.186809 21.72747,46.493502 44.585643,-60.1800013 36.378802,-9.520585 -8.388772,51.782427 -13.299392,-71.759238 -31.199822,-22.450354 -17.51223,48.239514 74.080498,-11.026875 32.455768,18.991629 -42.547468,30.683952 41.337356,-60.145532 -6.186808,-37.936404 -46.4935,21.727475 60.180001,44.585645 9.520585,36.378804 -51.782435,-8.38877 71.759237,-13.299389 22.450353,-31.199823 -48.239518,-17.5122242 11.026876,74.080499 -18.991628,32.455769 -30.68395,-42.5474637 60.145531,41.337356 37.936403,-6.186809 -21.727474,-46.4934995 -44.585644,60.180005 -36.378803,9.520586 8.388769,-51.78243125 13.299388,71.759239 31.199822,22.450353 z"
       transform="matrix(0.21451264,0,0,0.21451264,39.890116,122.14762)" />
    <path
       sodipodi:type="star"
       style="fill:#ffffff;fill-opacity:1;stroke:none;stroke-width:0.881461;stroke-linecap:round;stroke-opacity:1"
       id="path70"
       inkscape:flatsided="false"
       sodipodi:sides="8"
       sodipodi:cx="274.78641"
       sodipodi:cy="176.83751"
       sodipodi:r1="54.597939"
       sodipodi:r2="6.203095"
       sodipodi:arg1="-1.5222907"
       sodipodi:arg2="-1.1295916"
       inkscape:rounded="-1.3647458"
       inkscape:randomized="0"
       d="m 277.43368,122.30379 c -66.69118,-3.23744 60.37733,77.43726 0.002,48.92465 -60.3757,-28.51261 82.65273,18.3668 37.78416,-31.08019 -44.86856,-49.447001 -12.06319,97.44963 -34.59379,34.5961 -22.53061,-62.85352 45.45701,71.4316 48.69445,4.74043 3.23744,-66.69118 -77.43726,60.37733 -48.92465,0.002 28.51261,-60.3757 -18.36681,82.65273 31.08019,37.78417 49.447,-44.86857 -97.44963,-12.06319 -34.59611,-34.5938 62.85353,-22.53061 -71.4316,45.45701 -4.74042,48.69445 66.69118,3.23744 -60.37733,-77.43726 -0.002,-48.92465 60.37569,28.51261 -82.65274,-18.36681 -37.78417,31.08019 44.86857,49.447 12.06319,-97.44963 34.5938,-34.5961 22.5306,62.85352 -45.45702,-71.43161 -48.69445,-4.74043 -3.23744,66.69118 77.43725,-60.37733 48.92464,-0.002 -28.51261,60.3757 18.36681,-82.652736 -31.08019,-37.78417 -49.44699,44.86857 97.44964,12.06319 34.59611,34.5938 -62.85353,22.53061 71.4316,-45.45702 4.74043,-48.69445 z"
       inkscape:transform-center-x="1.9145769e-06"
       inkscape:transform-center-y="-4.185442e-06"
       transform="matrix(0.22689599,0,0,0.22689599,110.16153,130.12587)" />
    <path
       sodipodi:type="star"
       style="fill:#ffffff;fill-opacity:1;stroke:none;stroke-width:1.21222;stroke-linecap:round;stroke-opacity:1"
       id="path71"
       inkscape:flatsided="false"
       sodipodi:sides="8"
       sodipodi:cx="-214.95816"
       sodipodi:cy="52.945358"
       sodipodi:r1="30.781252"
       sodipodi:r2="0.30781251"
       sodipodi:arg1="-0.068856489"
       sodipodi:arg2="0.32384259"
       inkscape:rounded="6.605"
       inkscape:randomized="0"
       d="m -184.24985,50.827544 c 13.85903,200.955996 33.68196,-188.746994 -30.4165,2.215764 -64.09845,190.962762 155.217298,-131.778584 22.91977,20.118584 -132.29754,151.897168 157.281013,-109.64754 -23.0745,-19.94093 -180.35551,89.706608 202.936734,16.573672 1.98073,30.432707 -200.956,13.859035 188.746998,33.681951 -2.21576,-30.416498 -190.96276,-64.098454 131.778584,155.217299 -20.11858,22.919763 -151.89717,-132.297533 109.64754,157.281016 19.94093,-23.074494 -89.70661,-180.35551 -16.57368,202.93673 -30.43271,1.980733 -13.85904,-200.956003 -33.68196,188.746997 30.4165,-2.215764 64.09845,-190.962759 -155.2173,131.778581 -22.91977,-20.118584 132.29754,-151.897165 -157.28101,109.647535 23.0745,19.94093 180.35551,-89.70661 -202.93673,-16.573672 -1.98073,-30.432707 200.955995,-13.8590351 -188.747,-33.681956 2.21576,30.416498 190.962757,64.098454 -131.77858,-155.217296 20.11858,-22.919763 151.897171,132.297537 -109.64754,-157.281023 -19.94093,23.074494 89.70661,180.355513 16.57368,-202.936737 30.43271,-1.980733 z"
       transform="matrix(0.16498615,0,0,0.16498615,95.165786,256.98409)"
       inkscape:transform-center-y="-2.9894261e-06" />
    <path
       sodipodi:type="star"
       style="fill:#ffffff;fill-opacity:1;stroke:none;stroke-width:2.44327;stroke-linecap:round;stroke-opacity:1"
       id="path74"
       inkscape:flatsided="false"
       sodipodi:sides="18"
       sodipodi:cx="171.54297"
       sodipodi:cy="402.91418"
       sodipodi:r1="76.666039"
       sodipodi:r2="179.48445"
       sodipodi:arg1="-0.42534152"
       sodipodi:arg2="-0.68734011"
       inkscape:rounded="4.4850477"
       inkscape:randomized="0"
       d="m 241.3779,371.27933 c 365.35765,313.14673 -50.1769,-548.47348 68.89514,-82.24507 138.4038,541.92228 -336.859735,-379.245598 -62.28695,108.03784 236.2214,419.22134 140.43813,-532.558 92.86973,-53.72156 -55.2913,556.57725 -186.83497,-471.58711 -95.4817,80.21897 78.59336,474.73168 314.11423,-452.408153 105.64285,-18.71844 -242.31746,504.1008 -14.27515,-507.04824 -117.15995,42.72451 -88.5142,472.98237 449.90352,-317.69121 105.67389,18.5424 -400.116557,390.82235 160.00646,-481.351879 -124.70698,0.0769 -244.94564,414.1844 531.42781,-144.65602 92.95909,53.56676 C -201.87267,750.16654 622.77195,122.16421 190.57051,477.1815 -181.26251,782.61119 739.42458,523.00833 259.60258,559.31167 -298.12025,601.50899 691.58166,293.4249 164.02209,479.21044 -289.84975,639.04608 664.10251,709.99271 200.80084,579.99791 -337.71952,428.89798 697.66703,477.89162 138.3808,472.03692 -342.78623,466.99997 529.37049,859.93889 138.47018,579.32523 -315.89421,253.15294 640.29407,653.31496 116.73936,456.52618 -333.68702,287.22418 351.4792,954.76115 80.128577,557.37479 -235.27679,95.471311 526.38281,798.53626 101.70804,434.54904 -263.64961,121.40231 151.88493,983.02252 32.812902,516.79411 -105.5909,-25.128167 369.67263,896.03971 95.099843,408.75627 -141.12155,-10.465074 -45.338279,941.31426 2.2301214,462.47783 57.521422,-94.099421 189.06509,934.06493 97.711817,382.25886 19.118458,-92.472819 -216.40241,834.66701 -7.9310314,400.9773 234.38643,-103.1235 6.3441211,908.02554 109.22892,358.25279 197.74311,-114.72958 -340.67461,675.944 3.5550289,339.71038 403.67158,-51.111963 -156.45143,821.06227 128.26201,339.63354 373.20765,-74.550864 -403.1658,484.28956 35.302914,286.06678 544.9586,55.661826 -279.68601,683.66416 152.51543,328.64687 524.34844,23.217184 -396.33864,282.82004 83.48336,246.5167 641.20619,204.31937 -348.49572,512.40347 179.06385,326.61793 632.93569,166.78229 -321.01657,95.835658 142.2851,225.83046 680.80545,376.93039 -354.58109,327.93675 204.70514,333.79145 685.87217,338.8284 -186.28455,-54.110525 204.61576,226.50313 658.98015,552.67543 -297.20813,152.51341 226.34658,349.30219 676.77295,518.60419 -8.3932577,-148.93278 262.95736,248.45358 578.36273,710.35706 -183.29688,7.2921063 241.3779,371.27933 Z"
       transform="matrix(0.08185771,0,0,0.08185721,172.68884,240.86345)"
       inkscape:transform-center-y="-1.7571953e-06"
       inkscape:transform-center-x="4.1963557e-06" />
    <path
       sodipodi:type="star"
       style="fill:#ffffff;fill-opacity:1;stroke:none;stroke-width:0.538869;stroke-linecap:round;stroke-opacity:1"
       id="path75"
       inkscape:flatsided="false"
       sodipodi:sides="3"
       sodipodi:cx="254.15302"
       sodipodi:cy="304.23611"
       sodipodi:r1="17.72085"
       sodipodi:r2="8.860425"
       sodipodi:arg1="0.4825133"
       sodipodi:arg2="1.5297109"
       inkscape:rounded="0"
       inkscape:randomized="0"
       d="m 269.8507,312.45871 -15.33375,0.63035 -15.33376,0.63035 7.12098,-13.5946 7.12098,-13.59459 8.21278,12.96425 z"
       inkscape:transform-center-x="0.98262687"
       inkscape:transform-center-y="11.009768"
       transform="matrix(0.37114763,0,0,0.37114763,81.555568,103.51332)" />
    <path
       sodipodi:type="star"
       style="fill:#ffffff;fill-opacity:1;stroke:none;stroke-width:0.771278;stroke-linecap:round;stroke-opacity:1"
       id="path77"
       inkscape:flatsided="true"
       sodipodi:sides="4"
       sodipodi:cx="303.48862"
       sodipodi:cy="273.58826"
       sodipodi:r1="28.138521"
       sodipodi:r2="19.89694"
       sodipodi:arg1="0.69133693"
       sodipodi:arg2="1.4767351"
       inkscape:rounded="0"
       inkscape:randomized="0"
       d="m 325.16637,291.52847 -39.61797,3.73754 -3.73754,-39.61797 39.61797,-3.73754 z"
       inkscape:transform-center-x="3.5223703e-06"
       inkscape:transform-center-y="-3.2474045e-06"
       transform="matrix(0.25930977,0,0,0.25930977,13.955948,61.584763)" />
    <path
       sodipodi:type="star"
       style="fill:#ffffff;fill-opacity:1;stroke:none;stroke-width:1.54306;stroke-linecap:round;stroke-opacity:1"
       id="path78"
       inkscape:flatsided="true"
       sodipodi:sides="5"
       sodipodi:cx="262.37561"
       sodipodi:cy="-9.7176161"
       sodipodi:r1="53.596962"
       sodipodi:r2="37.898777"
       sodipodi:arg1="-0.87427234"
       sodipodi:arg2="-0.24595381"
       inkscape:rounded="0"
       inkscape:randomized="0"
       d="M 296.76102,-50.830606 312.10206,10.280239 258.72284,43.754728 210.39162,3.3322548 233.90051,-55.124697 Z"
       inkscape:transform-center-x="1.4109942e-06"
       transform="matrix(0.12961224,0,0,0.12961224,123.96693,17.416541)"
       inkscape:transform-center-y="1.5356831e-06" />
    <path
       sodipodi:type="star"
       style="fill:#ffffff;fill-opacity:1;stroke:none;stroke-width:1.61567;stroke-linecap:round;stroke-opacity:1"
       id="path79"
       inkscape:flatsided="true"
       sodipodi:sides="6"
       sodipodi:cx="-362.54181"
       sodipodi:cy="58.305695"
       sodipodi:r1="52.057972"
       sodipodi:r2="42.115784"
       sodipodi:arg1="-2.8652654"
       sodipodi:arg2="-2.3416666"
       inkscape:rounded="0"
       inkscape:randomized="0"
       d="m -412.62491,44.103026 37.34142,-36.2719003 50.0831,14.2026683 12.74168,50.474569 -37.34142,36.271897 -50.0831,-14.202665 z"
       inkscape:transform-center-x="0.075316861"
       inkscape:transform-center-y="-0.54328373"
       transform="matrix(0.12378753,0,0,0.12378753,82.457971,22.198344)" />
    <path
       sodipodi:type="star"
       style="fill:#ffffff;fill-opacity:1;stroke:none;stroke-width:1.45162;stroke-linecap:round;stroke-opacity:1"
       id="path80"
       inkscape:flatsided="false"
       sodipodi:sides="5"
       sodipodi:cx="-312.45874"
       sodipodi:cy="285.54843"
       sodipodi:r1="56.023289"
       sodipodi:r2="38.890221"
       sodipodi:arg1="-2.1870932"
       sodipodi:arg2="-1.5587747"
       inkscape:rounded="0"
       inkscape:randomized="0"
       d="m -344.84117,239.83205 32.84994,6.82897 33.00463,-6.03725 3.65645,33.35242 15.94076,29.52365 -30.59013,13.78396 -23.1527,24.28387 -22.56219,-24.83346 -30.24991,-14.5154 16.64592,-29.13188 z"
       inkscape:transform-center-x="-3.1485562e-06"
       transform="matrix(0.13777742,0,0,0.13777742,164.96875,238.5623)" />
    <path
       sodipodi:type="star"
       style="fill:#ffffff;fill-opacity:1;stroke:none;stroke-width:0.538869;stroke-linecap:round;stroke-opacity:1"
       id="path81"
       inkscape:flatsided="false"
       sodipodi:sides="5"
       sodipodi:cx="-195.84734"
       sodipodi:cy="-32.890392"
       sodipodi:r1="53.220322"
       sodipodi:r2="26.610161"
       sodipodi:arg1="2.084716"
       sodipodi:arg2="2.7130345"
       inkscape:rounded="-1.03"
       inkscape:randomized="0"
       d="m -222.01015,13.455158 c 31.69978,17.895033 -13.1681,-68.397485 1.95912,-35.287438 15.12722,33.110049 -20.73488,-57.29701 -27.9583,-21.618861 -7.22341,35.678148 60.98071,-33.659596 34.16575,-9.041188 -26.81496,24.61841 48.08527,-37.42579 11.92117,-33.270515 -36.16409,4.155275 50.85625,47.59471 19.15648,29.699676 -31.69978,-17.895035 50.4532,34.1666 35.32598,1.056552 -15.12722,-33.110047 -29.54981,63.0747446 -22.32639,27.396597 7.22342,-35.678149 -16.90347,58.54191 9.91149,33.9235002 26.81496,-24.6184092 -69.11904,-8.6123742 -32.95495,-12.7676479 36.1641,-4.1552743 -60.90012,2.0142906 -29.20035,19.9093247 z"
       inkscape:transform-center-x="0.69675451"
       inkscape:transform-center-y="-1.211222"
       transform="matrix(0.37114763,0,0,0.37114763,94.164059,91.255063)" />
    <path
       sodipodi:type="star"
       style="fill:#ffffff;fill-opacity:1;stroke:none;stroke-width:0.869158;stroke-linecap:round;stroke-opacity:1"
       id="path82"
       inkscape:flatsided="false"
       sodipodi:sides="4"
       sodipodi:cx="20.930248"
       sodipodi:cy="-68.770821"
       sodipodi:r1="52.946644"
       sodipodi:r2="26.473322"
       sodipodi:arg1="-0.53315571"
       sodipodi:arg2="0.25224245"
       inkscape:rounded="-1.03"
       inkscape:randomized="0"
       d="m 66.528293,-95.681142 c -20.422708,-34.605148 -29.990962,72.427996 -19.962466,33.517429 10.028496,-38.910567 -33.3304,59.413645 1.274743,38.990937 34.605143,-20.422708 -72.427996,-29.990962 -33.517429,-19.962466 38.910566,10.028497 -59.413645,-33.3304 -38.990937,1.274743 20.4227074,34.6051433 29.9909618,-72.427991 19.9624655,-33.517429 -10.0284965,38.910566 33.3304005,-59.413642 -1.274743,-38.990942 -34.6051435,20.422713 72.4279965,29.990967 33.5174295,19.962471 -38.910567,-10.028501 59.413645,33.3304 38.990937,-1.274743 z"
       inkscape:transform-center-x="0.53572438"
       inkscape:transform-center-y="-0.22966201"
       transform="matrix(0.23010767,0,0,0.23010767,180.64731,54.062115)" />
    <path
       sodipodi:type="star"
       style="fill:#ffffff;fill-opacity:1;stroke:none;stroke-width:0.538869;stroke-linecap:round;stroke-opacity:1"
       id="path83"
       inkscape:flatsided="false"
       sodipodi:sides="3"
       sodipodi:cx="-241.44537"
       sodipodi:cy="168.18951"
       sodipodi:r1="39.021107"
       sodipodi:r2="19.510555"
       sodipodi:arg1="-1.8622531"
       sodipodi:arg2="-0.81505555"
       inkscape:rounded="-1.03"
       inkscape:randomized="0"
       d="m -252.65801,130.81407 c -33.33912,10.00174 49.92484,47.04803 24.59352,23.17637 -25.33132,-23.87166 16.58571,57.04977 24.59351,23.17637 8.00781,-33.8734 -65.7072,19.71216 -32.36808,9.71043 33.33913,-10.00174 -57.6994,-14.16124 -32.36808,9.71042 25.33132,23.87166 15.78237,-66.76019 7.77457,-32.88679 -8.00781,33.87339 41.11369,-42.88853 7.77456,-32.8868 z"
       inkscape:transform-center-x="-1.4318821e-06"
       transform="matrix(0.37114763,0,0,0.37114763,138.29378,110.51803)" />
    <path
       sodipodi:type="star"
       style="fill:#ffffff;fill-opacity:1;stroke:none;stroke-width:0.538869;stroke-linecap:round;stroke-opacity:1"
       id="path84"
       inkscape:flatsided="false"
       sodipodi:sides="2"
       sodipodi:cx="-483.63824"
       sodipodi:cy="97.923668"
       sodipodi:r1="41.112991"
       sodipodi:r2="20.556498"
       sodipodi:arg1="-0.92729522"
       sodipodi:arg2="0.64350111"
       inkscape:rounded="-1.03"
       inkscape:randomized="0"
       d="m -458.97045,65.033275 c -37.87576,-28.406817 -36.62941,83.100045 -8.2226,45.224295 28.40682,-37.875759 -78.98874,-7.85033 -41.11299,20.55649 37.87576,28.40682 36.62941,-83.100046 8.2226,-45.224291 -28.40682,37.875751 78.98875,7.850322 41.11299,-20.556494 z"
       inkscape:transform-center-x="1.9818995"
       inkscape:transform-center-y="0.58840827"
       transform="matrix(0.37114763,0,0,0.37114763,287.35939,186.58005)" />
  </g>
</svg>
