<?xml version="1.0" encoding="UTF-8" standalone="no"?>
<!-- Created with Inkscape (http://www.inkscape.org/) -->

<svg
   width="38.223492mm"
   height="37.816105mm"
   viewBox="0 0 38.223492 37.816105"
   version="1.1"
   id="svg1"
   xmlns="http://www.w3.org/2000/svg"
   xmlns:svg="http://www.w3.org/2000/svg">
  <defs
     id="defs1" />
  <g
     id="layer1"
     transform="translate(-1.9158478,-59.349927)">
    <path
       style="fill:#ffffff;fill-opacity:1;stroke:none;stroke-width:0.538869;stroke-linecap:round;stroke-opacity:1"
       id="path81"
       d="m -222.01015,13.455158 c 31.69978,17.895033 -13.1681,-68.397485 1.95912,-35.287438 15.12722,33.110049 -20.73488,-57.29701 -27.9583,-21.618861 -7.22341,35.678148 60.98071,-33.659596 34.16575,-9.041188 -26.81496,24.61841 48.08527,-37.42579 11.92117,-33.270515 -36.16409,4.155275 50.85625,47.59471 19.15648,29.699676 -31.69978,-17.895035 50.4532,34.1666 35.32598,1.056552 -15.12722,-33.110047 -29.54981,63.0747446 -22.32639,27.396597 7.22342,-35.678149 -16.90347,58.54191 9.91149,33.9235002 26.81496,-24.6184092 -69.11904,-8.6123742 -32.95495,-12.7676479 36.1641,-4.1552743 -60.90012,2.0142906 -29.20035,19.9093247 z"
       transform="matrix(0.37114763,0,0,0.37114763,94.164059,91.255063)" />
  </g>
</svg>
