<?xml version="1.0" encoding="UTF-8" standalone="no"?>
<!-- Created with Inkscape (http://www.inkscape.org/) -->

<svg
   width="40.363487mm"
   height="44.516933mm"
   viewBox="0 0 40.363487 44.516933"
   version="1.1"
   id="svg1"
   xmlns="http://www.w3.org/2000/svg"
   xmlns:svg="http://www.w3.org/2000/svg">
  <defs
     id="defs1" />
  <g
     id="layer1"
     transform="translate(-77.326125,-17.025262)">
    <path
       style="fill:#ffffff;fill-opacity:1;stroke:none;stroke-width:1.69988;stroke-linecap:round;stroke-opacity:1"
       id="path13"
       d="M 7.4183872,66.48479 C -229.15158,94.19181 -148.24978,290.67793 4.8152552,108.18376 203.21169,-128.35748 201.15896,302.95449 16.741675,55.359722 -125.53829,-135.66237 -255.24937,32.643703 -20.672258,73.954828 283.37668,127.50056 -91.176806,341.37883 31.03791,57.871392 125.32791,-160.85772 -85.284962,-189.03777 -3.7728907,34.767529 101.87961,324.8545 -270.62114,107.4208 36.010858,71.50813 272.58083,43.801109 191.67903,-152.68501 38.61399,29.809161 -159.78245,266.3504 -157.72971,-164.96157 26.68757,82.633198 168.96754,273.65529 298.67861,105.34922 64.101503,64.038092 -239.94743,10.492357 134.60605,-203.38591 12.391335,80.121528 -81.898667,298.85064 128.71421,327.03069 47.202136,103.22539 -58.450366,-186.86158 314.05039,30.572122 7.4183872,66.48479 Z"
       transform="matrix(0.11765569,0,0,0.11765569,94.95302,31.165903)" />
  </g>
</svg>
