<?xml version="1.0" encoding="UTF-8" standalone="no"?>
<!-- Created with Inkscape (http://www.inkscape.org/) -->

<svg
   width="24.790127mm"
   height="24.790127mm"
   viewBox="0 0 24.790127 24.790127"
   version="1.1"
   id="svg1"
   xmlns="http://www.w3.org/2000/svg"
   xmlns:svg="http://www.w3.org/2000/svg">
  <defs
     id="defs1" />
  <g
     id="layer1"
     transform="translate(-160.1144,-157.85453)">
    <path
       style="fill:#ffffff;fill-opacity:1;stroke:none;stroke-width:0.881461;stroke-linecap:round;stroke-opacity:1"
       id="path70"
       d="m 277.43368,122.30379 c -66.69118,-3.23744 60.37733,77.43726 0.002,48.92465 -60.3757,-28.51261 82.65273,18.3668 37.78416,-31.08019 -44.86856,-49.447001 -12.06319,97.44963 -34.59379,34.5961 -22.53061,-62.85352 45.45701,71.4316 48.69445,4.74043 3.23744,-66.69118 -77.43726,60.37733 -48.92465,0.002 28.51261,-60.3757 -18.36681,82.65273 31.08019,37.78417 49.447,-44.86857 -97.44963,-12.06319 -34.59611,-34.5938 62.85353,-22.53061 -71.4316,45.45701 -4.74042,48.69445 66.69118,3.23744 -60.37733,-77.43726 -0.002,-48.92465 60.37569,28.51261 -82.65274,-18.36681 -37.78417,31.08019 44.86857,49.447 12.06319,-97.44963 34.5938,-34.5961 22.5306,62.85352 -45.45702,-71.43161 -48.69445,-4.74043 -3.23744,66.69118 77.43725,-60.37733 48.92464,-0.002 -28.51261,60.3757 18.36681,-82.652736 -31.08019,-37.78417 -49.44699,44.86857 97.44964,12.06319 34.59611,34.5938 -62.85353,22.53061 71.4316,-45.45702 4.74043,-48.69445 z"
       transform="matrix(0.22689599,0,0,0.22689599,110.16153,130.12587)" />
  </g>
</svg>
