<?xml version="1.0" encoding="UTF-8" standalone="no"?>
<!-- Created with Inkscape (http://www.inkscape.org/) -->

<svg
   width="22.679413mm"
   height="22.679413mm"
   viewBox="0 0 22.679413 22.679413"
   version="1.1"
   id="svg1"
   xmlns="http://www.w3.org/2000/svg"
   xmlns:svg="http://www.w3.org/2000/svg">
  <defs
     id="defs1" />
  <g
     id="layer1"
     transform="translate(-48.36096,-254.37963)">
    <path
       style="fill:#ffffff;fill-opacity:1;stroke:none;stroke-width:1.21222;stroke-linecap:round;stroke-opacity:1"
       id="path71"
       d="m -184.24985,50.827544 c 13.85903,200.955996 33.68196,-188.746994 -30.4165,2.215764 -64.09845,190.962762 155.217298,-131.778584 22.91977,20.118584 -132.29754,151.897168 157.281013,-109.64754 -23.0745,-19.94093 -180.35551,89.706608 202.936734,16.573672 1.98073,30.432707 -200.956,13.859035 188.746998,33.681951 -2.21576,-30.416498 -190.96276,-64.098454 131.778584,155.217299 -20.11858,22.919763 -151.89717,-132.297533 109.64754,157.281016 19.94093,-23.074494 -89.70661,-180.35551 -16.57368,202.93673 -30.43271,1.980733 -13.85904,-200.956003 -33.68196,188.746997 30.4165,-2.215764 64.09845,-190.962759 -155.2173,131.778581 -22.91977,-20.118584 132.29754,-151.897165 -157.28101,109.647535 23.0745,19.94093 180.35551,-89.70661 -202.93673,-16.573672 -1.98073,-30.432707 200.955995,-13.8590351 -188.747,-33.681956 2.21576,30.416498 190.962757,64.098454 -131.77858,-155.217296 20.11858,-22.919763 151.897171,132.297537 -109.64754,-157.281023 -19.94093,23.074494 89.70661,180.355513 16.57368,-202.936737 30.43271,-1.980733 z"
       transform="matrix(0.16498615,0,0,0.16498615,95.165786,256.98409)" />
  </g>
</svg>
