<?xml version="1.0" encoding="UTF-8" standalone="no"?>
<!-- Created with Inkscape (http://www.inkscape.org/) -->

<svg
   width="22.940353mm"
   height="22.940353mm"
   viewBox="0 0 22.940353 22.940353"
   version="1.1"
   id="svg1"
   xmlns="http://www.w3.org/2000/svg"
   xmlns:svg="http://www.w3.org/2000/svg">
  <defs
     id="defs1" />
  <g
     id="layer1"
     transform="translate(-167.63168,-103.43443)">
    <path
       style="fill:#ffffff;fill-opacity:1;stroke:none;stroke-width:0.867951;stroke-linecap:round;stroke-opacity:1"
       id="path67"
       d="M 210,46.062464 C 193.27622,-16.167478 133.00524,116.75025 165.18296,60.921539 197.36068,5.0928294 112.56156,123.87339 174.7915,107.14962 237.02144,90.425839 104.10371,30.154858 159.93242,62.332577 215.76113,94.510296 96.980571,9.7111715 113.70435,71.941114 130.42812,134.17106 190.6991,1.2533294 158.52138,57.082039 126.34367,112.91075 211.14279,-5.8698129 148.91285,10.853963 86.682905,27.577739 219.60063,87.84872 163.77192,55.671001 107.94321,23.493282 226.72377,108.29241 210,46.062464 Z"
       transform="matrix(0.23042779,0,0,0.23042779,141.80662,101.30896)" />
  </g>
</svg>
