<?xml version="1.0" encoding="UTF-8" standalone="no"?>
<!-- Created with Inkscape (http://www.inkscape.org/) -->

<svg
   width="22.285076mm"
   height="22.285076mm"
   viewBox="0 0 22.285076 22.285076"
   version="1.1"
   id="svg1"
   xmlns="http://www.w3.org/2000/svg"
   xmlns:svg="http://www.w3.org/2000/svg">
  <defs
     id="defs1" />
  <g
     id="layer1"
     transform="translate(-174.32098,-27.094884)">
    <path
       style="fill:#ffffff;fill-opacity:1;stroke:none;stroke-width:0.869158;stroke-linecap:round;stroke-opacity:1"
       id="path82"
       d="m 66.528293,-95.681142 c -20.422708,-34.605148 -29.990962,72.427996 -19.962466,33.517429 10.028496,-38.910567 -33.3304,59.413645 1.274743,38.990937 34.605143,-20.422708 -72.427996,-29.990962 -33.517429,-19.962466 38.910566,10.028497 -59.413645,-33.3304 -38.990937,1.274743 20.4227074,34.6051433 29.9909618,-72.427991 19.9624655,-33.517429 -10.0284965,38.910566 33.3304005,-59.413642 -1.274743,-38.990942 -34.6051435,20.422713 72.4279965,29.990967 33.5174295,19.962471 -38.910567,-10.028501 59.413645,33.3304 38.990937,-1.274743 z"
       transform="matrix(0.23010767,0,0,0.23010767,180.64731,54.062115)" />
  </g>
</svg>
