<?xml version="1.0" encoding="UTF-8" standalone="no"?>
<!-- Created with Inkscape (http://www.inkscape.org/) -->

<svg
   width="34.065132mm"
   height="34.065132mm"
   viewBox="0 0 34.065132 34.065132"
   version="1.1"
   id="svg1"
   xmlns="http://www.w3.org/2000/svg"
   xmlns:svg="http://www.w3.org/2000/svg">
  <defs
     id="defs1" />
  <g
     id="layer1"
     transform="translate(-11.323434,-208.02896)">
    <path
       style="fill:#ffffff;fill-opacity:1;stroke:none;stroke-width:0.538869;stroke-linecap:round;stroke-opacity:1"
       id="path68"
       d="m -131.83395,125.48051 c -44.79654,22.92211 84.995998,18.70302 36.483795,5.33441 -44.034365,-12.13464 51.563134,53.85815 30.756819,13.19647 -22.922103,-44.796547 -18.703018,84.99599 -5.334407,36.48379 12.134643,-44.03436 -53.858147,51.56314 -13.196472,30.75682 44.796549,-22.9221 -84.995995,-18.70302 -36.483795,-5.33441 44.034367,12.13465 -51.56313,-53.85814 -30.75681,-13.19647 22.9221,44.79655 18.70301,-84.99599 5.3344,-36.48379 -12.13464,44.03436 53.858151,-51.56313 13.19647,-30.75682 z"
       transform="matrix(0.37114763,0,0,0.37114763,68.246606,162.57279)" />
  </g>
</svg>
