<?xml version="1.0" encoding="UTF-8" standalone="no"?>
<!-- Created with Inkscape (http://www.inkscape.org/) -->

<svg
   width="23.44108mm"
   height="23.769581mm"
   viewBox="0 0 23.44108 23.769581"
   version="1.1"
   id="svg1"
   xmlns="http://www.w3.org/2000/svg"
   xmlns:svg="http://www.w3.org/2000/svg">
  <defs
     id="defs1" />
  <g
     id="layer1"
     transform="translate(-132.15274,-64.862782)">
    <path
       style="fill:#ffffff;fill-opacity:1;stroke:none;stroke-width:0.538869;stroke-linecap:round;stroke-opacity:1"
       id="path44"
       d="M 19.187635,43.689197 C 14.81731,84.206989 19.868946,-7.8130216 -4.1747612,25.091253 -28.218469,57.995528 57.916713,25.224633 20.642113,41.698716 -16.632486,58.172799 65.584998,16.537639 25.067207,12.167315 -15.450585,7.7969912 55.997434,66.006799 23.093159,41.96309 -9.8111149,17.919382 67.354733,68.304232 50.880649,31.029633 34.406565,-6.2449656 19.719403,84.735737 24.089728,44.217946 28.460053,3.7001541 23.408416,95.720164 47.452124,62.815889 71.495831,29.911614 -14.63935,62.68251 22.63525,46.208427 59.909849,29.734343 -22.307636,71.369503 18.210156,75.739827 58.727948,80.110151 -12.720071,21.900344 20.184203,45.944052 53.088478,69.987761 -24.077371,19.60291 -7.6032864,56.877509 8.8707977,94.152108 23.55796,3.1714054 19.187635,43.689197 Z"
       transform="matrix(0.37114763,0,0,0.37114763,135.84213,60.434308)" />
  </g>
</svg>
