<?xml version="1.0" encoding="UTF-8" standalone="no"?>
<!-- Created with Inkscape (http://www.inkscape.org/) -->

<svg
   width="46.538094mm"
   height="46.31023mm"
   viewBox="0 0 46.538094 46.31023"
   version="1.1"
   id="svg1"
   xmlns="http://www.w3.org/2000/svg"
   xmlns:svg="http://www.w3.org/2000/svg">
  <defs
     id="defs1" />
  <g
     id="layer1"
     transform="translate(-163.46191,-250.68977)">
    <path
       style="fill:#ffffff;fill-opacity:1;stroke:none;stroke-width:2.44327;stroke-linecap:round;stroke-opacity:1"
       id="path74"
       d="m 241.3779,371.27933 c 365.35765,313.14673 -50.1769,-548.47348 68.89514,-82.24507 138.4038,541.92228 -336.859735,-379.245598 -62.28695,108.03784 236.2214,419.22134 140.43813,-532.558 92.86973,-53.72156 -55.2913,556.57725 -186.83497,-471.58711 -95.4817,80.21897 78.59336,474.73168 314.11423,-452.408153 105.64285,-18.71844 -242.31746,504.1008 -14.27515,-507.04824 -117.15995,42.72451 -88.5142,472.98237 449.90352,-317.69121 105.67389,18.5424 -400.116557,390.82235 160.00646,-481.351879 -124.70698,0.0769 -244.94564,414.1844 531.42781,-144.65602 92.95909,53.56676 C -201.87267,750.16654 622.77195,122.16421 190.57051,477.1815 -181.26251,782.61119 739.42458,523.00833 259.60258,559.31167 -298.12025,601.50899 691.58166,293.4249 164.02209,479.21044 -289.84975,639.04608 664.10251,709.99271 200.80084,579.99791 -337.71952,428.89798 697.66703,477.89162 138.3808,472.03692 -342.78623,466.99997 529.37049,859.93889 138.47018,579.32523 -315.89421,253.15294 640.29407,653.31496 116.73936,456.52618 -333.68702,287.22418 351.4792,954.76115 80.128577,557.37479 -235.27679,95.471311 526.38281,798.53626 101.70804,434.54904 -263.64961,121.40231 151.88493,983.02252 32.812902,516.79411 -105.5909,-25.128167 369.67263,896.03971 95.099843,408.75627 -141.12155,-10.465074 -45.338279,941.31426 2.2301214,462.47783 57.521422,-94.099421 189.06509,934.06493 97.711817,382.25886 19.118458,-92.472819 -216.40241,834.66701 -7.9310314,400.9773 234.38643,-103.1235 6.3441211,908.02554 109.22892,358.25279 197.74311,-114.72958 -340.67461,675.944 3.5550289,339.71038 403.67158,-51.111963 -156.45143,821.06227 128.26201,339.63354 373.20765,-74.550864 -403.1658,484.28956 35.302914,286.06678 544.9586,55.661826 -279.68601,683.66416 152.51543,328.64687 524.34844,23.217184 -396.33864,282.82004 83.48336,246.5167 641.20619,204.31937 -348.49572,512.40347 179.06385,326.61793 632.93569,166.78229 -321.01657,95.835658 142.2851,225.83046 680.80545,376.93039 -354.58109,327.93675 204.70514,333.79145 685.87217,338.8284 -186.28455,-54.110525 204.61576,226.50313 658.98015,552.67543 -297.20813,152.51341 226.34658,349.30219 676.77295,518.60419 -8.3932577,-148.93278 262.95736,248.45358 578.36273,710.35706 -183.29688,7.2921063 241.3779,371.27933 Z"
       transform="matrix(0.08185771,0,0,0.08185721,172.68884,240.86345)" />
  </g>
</svg>
