<?xml version="1.0" encoding="UTF-8" standalone="no"?>
<!-- Created with Inkscape (http://www.inkscape.org/) -->

<svg
   width="19.186012mm"
   height="19.186012mm"
   viewBox="0 0 19.186012 19.186012"
   version="1.1"
   id="svg1"
   xmlns="http://www.w3.org/2000/svg"
   xmlns:svg="http://www.w3.org/2000/svg">
  <defs
     id="defs1" />
  <g
     id="layer1"
     transform="translate(-10.648723,-123.68491)">
    <path
       style="fill:#ffffff;fill-opacity:1;stroke:none;stroke-width:0.932346;stroke-linecap:round;stroke-opacity:1"
       id="path69"
       d="m -55.592628,74.123504 c 17.512225,-48.239514 -74.080502,11.026875 -32.455769,-18.991628 42.547464,-30.683952 -41.337353,60.145534 6.186809,37.936403 46.4935,-21.727474 -60.180002,-44.585645 -9.520585,-36.378803 51.782431,8.388769 -71.759237,13.299388 -22.450357,31.199822 48.239517,17.512222 -11.02687,-74.080499 18.991632,-32.455769 30.683952,42.547464 -60.145532,-41.337356 -37.936402,6.186809 21.72747,46.493502 44.585643,-60.1800013 36.378802,-9.520585 -8.388772,51.782427 -13.299392,-71.759238 -31.199822,-22.450354 -17.51223,48.239514 74.080498,-11.026875 32.455768,18.991629 -42.547468,30.683952 41.337356,-60.145532 -6.186808,-37.936404 -46.4935,21.727475 60.180001,44.585645 9.520585,36.378804 -51.782435,-8.38877 71.759237,-13.299389 22.450353,-31.199823 -48.239518,-17.5122242 11.026876,74.080499 -18.991628,32.455769 -30.68395,-42.5474637 60.145531,41.337356 37.936403,-6.186809 -21.727474,-46.4934995 -44.585644,60.180005 -36.378803,9.520586 8.388769,-51.78243125 13.299388,71.759239 31.199822,22.450353 z"
       transform="matrix(0.21451264,0,0,0.21451264,39.890116,122.14762)" />
  </g>
</svg>
